<?xml version="1.0" encoding="UTF-8"?>
<svg id="Layer_2" data-name="Layer 2" xmlns="http://www.w3.org/2000/svg" viewBox="0 0 1000 1000">
  <defs>
    <style>
      .cls-1 {
        fill: #fff;
        font-family: TmonMonsoriBlack, TmonMonsori;
        font-size: 300px;
      }

      .cls-2 {
        stroke-width: 0px;
      }
    </style>
  </defs>
  <g id="Layer_1-2" data-name="Layer 1">
    <g>
      <path class="cls-2" d="M500,999.5c-67.43,0-132.85-13.21-194.43-39.25-59.48-25.16-112.9-61.17-158.77-107.05-45.87-45.87-81.89-99.29-107.05-158.77C13.71,632.85.5,567.43.5,500s13.21-132.85,39.25-194.43c25.16-59.48,61.17-112.9,107.05-158.77,45.87-45.87,99.29-81.89,158.77-107.05C367.15,13.71,432.57.5,500,.5s132.85,13.21,194.43,39.25c59.48,25.16,112.9,61.17,158.77,107.05,45.87,45.87,81.89,99.29,107.05,158.77,26.05,61.58,39.25,127,39.25,194.43s-13.21,132.85-39.25,194.43c-25.16,59.48-61.17,112.9-107.05,158.77-45.87,45.87-99.29,81.89-158.77,107.05-61.58,26.05-127,39.25-194.43,39.25Z"/>
      <path class="cls-2" d="M500,1c67.36,0,132.71,13.19,194.23,39.21,59.42,25.13,112.79,61.11,158.61,106.94s81.81,99.19,106.94,158.61c26.02,61.52,39.21,126.87,39.21,194.23s-13.19,132.71-39.21,194.23c-25.13,59.42-61.11,112.79-106.94,158.61s-99.19,81.81-158.61,106.94c-61.52,26.02-126.87,39.21-194.23,39.21s-132.71-13.19-194.23-39.21c-59.42-25.13-112.79-61.11-158.61-106.94s-81.81-99.19-106.94-158.61C14.19,632.71,1,567.36,1,500s13.19-132.71,39.21-194.23c25.13-59.42,61.11-112.79,106.94-158.61s99.19-81.81,158.61-106.94C367.29,14.19,432.64,1,500,1M500,0C223.86,0,0,223.86,0,500s223.86,500,500,500,500-223.86,500-500S776.14,0,500,0h0Z"/>
    </g>
    <text class="cls-1" transform="translate(185 564.95)"><tspan x="0" y="0">logo</tspan></text>
  </g>
</svg>